<?xml version="1.0" standalone="no"?>
<!DOCTYPE svg PUBLIC "-//W3C//DTD SVG 20010904//EN"
 "http://www.w3.org/TR/2001/REC-SVG-20010904/DTD/svg10.dtd">
<svg version="1.0" xmlns="http://www.w3.org/2000/svg"
 width="512.000000pt" height="512.000000pt" viewBox="0 0 512.000000 512.000000"
 preserveAspectRatio="xMidYMid meet">

<g transform="translate(0.000000,512.000000) scale(0.100000,-0.100000)"
fill="#000000" stroke="none">
<path d="M2380 5114 c-19 -2 -78 -9 -130 -14 -330 -36 -695 -160 -990 -336
-375 -224 -680 -529 -904 -904 -175 -292 -291 -632 -338 -990 -16 -123 -16
-497 0 -620 82 -623 356 -1150 820 -1581 256 -239 575 -425 922 -539 274 -91
491 -124 800 -124 228 0 329 9 530 50 689 141 1304 583 1674 1204 175 292 290
632 338 990 16 121 16 486 0 610 -54 417 -184 770 -416 1122 -63 96 -77 108
-131 108 -27 0 -44 -8 -66 -29 -48 -49 -41 -79 51 -221 704 -1093 398 -2538
-690 -3253 -288 -189 -605 -309 -960 -364 -160 -24 -500 -24 -660 0 -506 78
-943 293 -1309 642 -308 294 -549 711 -650 1125 -52 215 -65 332 -65 570 0
238 13 355 65 570 139 567 501 1076 999 1403 570 374 1262 481 1930 297 220
-60 434 -157 640 -290 73 -47 134 -80 149 -80 44 0 89 35 96 74 12 63 -4 86
-106 154 -334 223 -707 362 -1109 412 -90 11 -430 21 -490 14z"/>
<path d="M2395 4633 c-284 -19 -628 -128 -889 -282 -225 -133 -291 -203 -256
-272 17 -34 2789 -2807 2824 -2826 74 -39 140 22 277 253 389 658 382 1488
-19 2139 -409 667 -1142 1040 -1937 988z m336 -203 c578 -56 1076 -356 1402
-843 69 -103 171 -314 211 -440 42 -130 72 -275 86 -416 39 -400 -59 -816
-273 -1161 -22 -36 -42 -67 -44 -69 -2 -3 -52 43 -111 102 l-108 108 25 72
c34 100 35 241 2 345 -47 146 -157 273 -292 340 l-79 38 25 36 c62 91 92 226
75 336 -13 84 -66 195 -123 256 -50 54 -142 111 -214 132 l-51 15 19 45 c69
154 28 341 -98 454 -52 45 -82 60 -313 151 -140 56 -276 104 -301 106 -63 7
-95 -22 -109 -97 -11 -59 -30 -92 -74 -124 -24 -18 -47 -22 -169 -27 -127 -5
-148 -8 -202 -33 -33 -15 -69 -36 -81 -47 l-20 -19 -205 205 c-112 113 -205
208 -206 213 -3 8 143 96 242 145 293 145 654 209 986 177z m104 -699 c188
-73 227 -96 256 -153 49 -96 13 -216 -80 -265 -44 -23 -48 -23 -370 -23 l-326
0 -127 127 c-71 70 -128 131 -128 136 0 22 74 37 183 37 72 0 132 6 164 15 71
21 161 91 198 152 25 42 33 49 50 43 11 -4 92 -35 180 -69z m455 -667 c101
-48 163 -143 163 -254 1 -114 -51 -198 -155 -249 -53 -27 -72 -31 -142 -31
l-81 0 -280 280 -280 281 365 -3 c347 -3 367 -4 410 -24z m225 -765 c77 -29
164 -110 195 -181 29 -68 45 -166 34 -212 l-9 -36 -230 231 -230 231 90 -5
c57 -3 112 -14 150 -28z"/>
<path d="M4251 4386 c-87 -48 -50 -186 49 -186 33 0 71 23 86 51 23 45 17 78
-20 115 -37 37 -73 43 -115 20z"/>
<path d="M960 3867 c-52 -26 -202 -252 -283 -427 -295 -635 -253 -1373 111
-1965 115 -188 292 -391 459 -527 623 -509 1506 -609 2228 -253 133 65 277
155 352 220 47 40 63 87 43 126 -15 29 -2749 2769 -2804 2810 -43 32 -68 35
-106 16z m322 -514 l266 -266 -28 -56 c-40 -80 -53 -135 -53 -226 0 -90 30
-193 76 -260 l27 -39 -79 -38 c-228 -112 -358 -374 -307 -618 46 -221 213
-394 429 -445 52 -12 191 -15 847 -15 l785 0 190 -190 c104 -104 187 -191 185
-192 -300 -214 -740 -342 -1115 -324 -496 23 -901 194 -1249 527 -161 154
-279 315 -381 524 -198 401 -245 855 -136 1287 32 125 80 256 131 358 38 77
133 240 140 240 3 0 125 -120 272 -267z m712 -821 c-94 -2 -112 0 -157 21 -73
34 -112 70 -143 133 -32 65 -37 144 -15 212 l15 43 203 -203 203 -203 -106 -3z
m681 -572 l370 -370 -676 0 c-750 0 -733 -1 -836 67 -60 40 -94 82 -131 161
-35 77 -36 189 -2 277 43 111 151 200 273 225 23 4 175 8 337 9 l295 1 370
-370z"/>
</g>
</svg>
